ply
format ascii 1.0
comment VCGLIB generated
element vertex 16
property float x
property float y
property float z
property float nx
property float ny
property float nz
element face 20
property list uchar int vertex_indices
end_header
0.5 0.809017 0.309017 1.636414 1.896371 1.475752 
0 0.8506508 0.5257311 0.3787015 1.655227 1.635738 
0.8506508 0.5257311 0 2.033928 1.022987 0.6127518 
0.5 -0.809017 0.309017 1.636414 -1.896371 1.475752 
0 -0.8506508 0.5257311 0.3787015 -1.655227 1.635738 
0.8506508 -0.5257311 0 2.033928 -1.022987 0.6127518 
1 0 0 2.808436 0 0.7514027 
0.809017 0.309017 0.5 4.544145 1.735709 2.808436 
0.809017 -0.309017 0.5 4.544145 -1.735709 2.808436 
0.5257311 0 0.8506508 2.980867 0 4.823144 
-0.5257311 0 0.8506508 -0.6442849 0 2.267978 
0 0 1 0 2.980232e-08 5.616872 
-0.309017 -0.5 0.809017 -0.2599568 -1.172022 2.647774 
0.309017 -0.5 0.809017 1.735709 -2.808436 4.544145 
0.309017 0.5 0.809017 1.735709 2.808436 4.544145 
-0.309017 0.5 0.809017 -0.2599568 1.172022 2.647774 
3 6 7 8 
3 5 6 8 
3 2 7 6 
3 9 8 7 
3 11 12 13 
3 9 11 13 
3 10 12 11 
3 4 13 12 
3 11 14 15 
3 10 11 15 
3 9 14 11 
3 1 15 14 
3 14 7 0 
3 1 14 0 
3 9 7 14 
3 2 0 7 
3 3 8 13 
3 4 3 13 
3 5 8 3 
3 9 13 8 
