ply
format ascii 1.0
comment VCGLIB generated
element vertex 51
property float x
property float y
property float z
element face 80
property list uchar int vertex_indices
end_header
0.5 0.809017 0.309017 
0.2598919 0.8626685 0.4338886 
0 0.8506508 0.5257311 
0.7020464 0.6937805 0.160622 
0.8506508 0.5257311 0 
0.5 -0.809017 0.309017 
0.2598919 -0.8626685 0.4338886 
0 -0.8506508 0.5257311 
0.7020464 -0.6937805 0.160622 
0.8506508 -0.5257311 0 
1 0 0 
0.9619383 0.2732666 0 
0.9619383 -0.2732666 0 
0.9510565 0.1624599 0.2628656 
0.8506508 0 0.5257311 
0.9510565 -0.1624599 0.2628656 
0.809017 0.309017 0.5 
0.809017 -0.309017 0.5 
0.8626685 -0.4338886 0.2598919 
0.8626685 0.4338886 0.2598919 
0.6937805 -0.160622 0.7020464 
0.6937805 0.160622 0.7020464 
0.5257311 0 0.8506508 
-0.5257311 0 0.8506508 
-0.1624599 -0.2628656 0.9510565 
0 -0.5257311 0.8506508 
0.1624599 -0.2628656 0.9510565 
0 0 1 
-0.309017 -0.5 0.809017 
0.309017 -0.5 0.809017 
0.2732666 0 0.9619383 
0.4338886 -0.2598919 0.8626685 
-0.4338886 -0.2598919 0.8626685 
-0.2732666 0 0.9619383 
0.160622 -0.7020464 0.6937805 
-0.160622 -0.7020464 0.6937805 
0.1624599 0.2628656 0.9510565 
0 0.5257311 0.8506508 
-0.1624599 0.2628656 0.9510565 
0.309017 0.5 0.809017 
-0.309017 0.5 0.809017 
-0.4338886 0.2598919 0.8626685 
0.4338886 0.2598919 0.8626685 
-0.160622 0.7020464 0.6937805 
0.160622 0.7020464 0.6937805 
0.5877853 0.4253254 0.6881909 
0.6881909 0.5877853 0.4253254 
0.4253254 0.6881909 0.5877853 
0.6881909 -0.5877853 0.4253254 
0.5877853 -0.4253254 0.6881909 
0.4253254 -0.6881909 0.5877853 
3 13 14 15 
3 10 13 15 
3 16 14 13 
3 17 15 14 
3 12 15 18 
3 9 12 18 
3 10 15 12 
3 17 18 15 
3 19 13 11 
3 4 19 11 
3 16 13 19 
3 10 11 13 
3 20 14 21 
3 22 20 21 
3 17 14 20 
3 16 21 14 
3 24 25 26 
3 27 24 26 
3 28 25 24 
3 29 26 25 
3 30 26 31 
3 22 30 31 
3 27 26 30 
3 29 31 26 
3 32 24 33 
3 23 32 33 
3 28 24 32 
3 27 33 24 
3 34 25 35 
3 7 34 35 
3 29 25 34 
3 28 35 25 
3 36 37 38 
3 27 36 38 
3 39 37 36 
3 40 38 37 
3 33 38 41 
3 23 33 41 
3 27 38 33 
3 40 41 38 
3 42 36 30 
3 22 42 30 
3 39 36 42 
3 27 30 36 
3 43 37 44 
3 2 43 44 
3 40 37 43 
3 39 44 37 
3 45 46 47 
3 39 45 47 
3 16 46 45 
3 0 47 46 
3 44 47 1 
3 2 44 1 
3 39 47 44 
3 0 1 47 
3 21 45 42 
3 22 21 42 
3 16 45 21 
3 39 42 45 
3 3 46 19 
3 4 3 19 
3 0 46 3 
3 16 19 46 
3 48 49 50 
3 5 48 50 
3 17 49 48 
3 29 50 49 
3 6 50 34 
3 7 6 34 
3 5 50 6 
3 29 34 50 
3 18 48 8 
3 9 18 8 
3 17 48 18 
3 5 8 48 
3 31 49 20 
3 22 31 20 
3 29 49 31 
3 17 20 49 
